<svg width="1399" height="1399" xmlns="http://www.w3.org/2000/svg" xmlns:xlink="http://www.w3.org/1999/xlink" xml:space="preserve" overflow="hidden"><g transform="translate(-2686 -567)"><path d="M3217.91 569.5C3509.08 569.5 3747.31 807.715 3747.31 1098.87 3747.31 1218.86 3706.72 1331.79 3637.9 1420.02L3715.55 1497.66C3754.37 1490.6 3794.96 1501.19 3824.96 1531.18L4045.54 1751.75C4093.19 1799.4 4093.19 1877.04 4047.31 1926.44 4022.6 1951.15 3990.84 1963.5 3959.07 1963.5 3927.31 1963.5 3895.54 1951.15 3870.84 1926.44L3650.25 1705.87C3620.25 1675.88 3609.67 1635.29 3616.72 1596.47L3539.08 1518.83C3449.08 1587.65 3337.9 1628.23 3217.91 1628.23 2926.73 1628.23 2688.5 1390.02 2688.5 1098.87 2688.5 807.715 2926.73 569.5 3217.91 569.5Z" stroke="#0D0D0D" stroke-width="4.58333" stroke-miterlimit="8" fill="#262626" fill-rule="evenodd"/></g></svg>