<svg width="354" height="2832" xmlns="http://www.w3.org/2000/svg" xmlns:xlink="http://www.w3.org/1999/xlink" xml:space="preserve" overflow="hidden"><g transform="translate(-1153 -799)"><path d="M1155.54 802.771 1490.06 802.771 1490.06 1019.32 1155.54 1019.32Z" fill="#ECF0F0" fill-rule="evenodd" fill-opacity="0.301961"/><path d="M1155.54 1019.32 1490.06 1019.32 1490.06 1235.87 1155.54 1235.87Z" fill="#ECF0F0" fill-rule="evenodd" fill-opacity="0.301961"/><path d="M1155.54 1235.87 1490.06 1235.87 1490.06 1452.42 1155.54 1452.42Z" fill="#ECF0F0" fill-rule="evenodd" fill-opacity="0.301961"/><path d="M1155.54 1452.42 1490.06 1452.42 1490.06 1668.97 1155.54 1668.97Z" fill="#ECF0F0" fill-rule="evenodd" fill-opacity="0.301961"/><path d="M1155.54 1668.97 1490.06 1668.97 1490.06 1885.52 1155.54 1885.52Z" fill="#ECF0F0" fill-rule="evenodd" fill-opacity="0.301961"/><path d="M1155.54 1885.52 1490.06 1885.52 1490.06 2102.07 1155.54 2102.07Z" fill="#ECF0F0" fill-rule="evenodd" fill-opacity="0.301961"/><path d="M1155.54 2102.07 1490.06 2102.07 1490.06 2318.62 1155.54 2318.62Z" fill="#ECF0F0" fill-rule="evenodd" fill-opacity="0.301961"/><path d="M1155.54 2318.62 1490.06 2318.62 1490.06 2535.17 1155.54 2535.17Z" fill="#ECF0F0" fill-rule="evenodd" fill-opacity="0.301961"/><path d="M1155.54 2535.17 1490.06 2535.17 1490.06 2751.72 1155.54 2751.72Z" fill="#ECF0F0" fill-rule="evenodd" fill-opacity="0.301961"/><path d="M1155.54 2751.72 1490.06 2751.72 1490.06 2968.27 1155.54 2968.27Z" fill="#ECF0F0" fill-rule="evenodd" fill-opacity="0.301961"/><path d="M1155.54 2968.27 1490.06 2968.27 1490.06 3184.82 1155.54 3184.82Z" fill="#ECF0F0" fill-rule="evenodd" fill-opacity="0.301961"/><path d="M1155.54 3184.82 1490.06 3184.82 1490.06 3401.37 1155.54 3401.37Z" fill="#ECF0F0" fill-rule="evenodd" fill-opacity="0.301961"/><path d="M1155.54 3401.37 1490.06 3401.37 1490.06 3617.92 1155.54 3617.92Z" fill="#ECF0F0" fill-rule="evenodd" fill-opacity="0.301961"/><path d="M1153.24 1019.32 1500.38 1019.32" stroke="#000000" stroke-width="6.875" stroke-linejoin="round" stroke-miterlimit="10" fill="none" fill-rule="evenodd"/><path d="M1153.24 1235.87 1500.38 1235.87" stroke="#000000" stroke-width="6.875" stroke-linejoin="round" stroke-miterlimit="10" fill="none" fill-rule="evenodd"/><path d="M1153.24 1452.42 1500.38 1452.42" stroke="#000000" stroke-width="6.875" stroke-linejoin="round" stroke-miterlimit="10" fill="none" fill-rule="evenodd"/><path d="M1153.24 1668.97 1500.38 1668.97" stroke="#000000" stroke-width="6.875" stroke-linejoin="round" stroke-miterlimit="10" fill="none" fill-rule="evenodd"/><path d="M1153.24 1885.52 1500.38 1885.52" stroke="#000000" stroke-width="6.875" stroke-linejoin="round" stroke-miterlimit="10" fill="none" fill-rule="evenodd"/><path d="M1153.24 2102.07 1500.38 2102.07" stroke="#000000" stroke-width="6.875" stroke-linejoin="round" stroke-miterlimit="10" fill="none" fill-rule="evenodd"/><path d="M1153.24 2318.62 1500.38 2318.62" stroke="#000000" stroke-width="6.875" stroke-linejoin="round" stroke-miterlimit="10" fill="none" fill-rule="evenodd"/><path d="M1153.24 2535.17 1500.38 2535.17" stroke="#000000" stroke-width="6.875" stroke-linejoin="round" stroke-miterlimit="10" fill="none" fill-rule="evenodd"/><path d="M1153.24 2751.72 1500.38 2751.72" stroke="#000000" stroke-width="6.875" stroke-linejoin="round" stroke-miterlimit="10" fill="none" fill-rule="evenodd"/><path d="M1153.24 2968.27 1500.38 2968.27" stroke="#000000" stroke-width="6.875" stroke-linejoin="round" stroke-miterlimit="10" fill="none" fill-rule="evenodd"/><path d="M1153.24 3184.82 1500.38 3184.82" stroke="#000000" stroke-width="6.875" stroke-linejoin="round" stroke-miterlimit="10" fill="none" fill-rule="evenodd"/><path d="M1153.24 3401.37 1500.38 3401.37" stroke="#000000" stroke-width="6.875" stroke-linejoin="round" stroke-miterlimit="10" fill="none" fill-rule="evenodd"/><path d="M1155.54 799.334 1155.54 3620.21" stroke="#000000" stroke-width="4.58333" stroke-linejoin="round" stroke-miterlimit="10" fill="none" fill-rule="evenodd"/><path d="M1490.06 799.334 1490.06 3620.21" stroke="#000000" stroke-width="20.625" stroke-linejoin="round" stroke-miterlimit="10" fill="none" fill-rule="evenodd"/><path d="M1153.24 802.771 1500.38 802.771" stroke="#000000" stroke-width="6.875" stroke-linejoin="round" stroke-miterlimit="10" fill="none" fill-rule="evenodd"/><path d="M1153.24 3617.92 1500.38 3617.92" stroke="#000000" stroke-width="4.58333" stroke-linejoin="round" stroke-miterlimit="10" fill="none" fill-rule="evenodd"/><text font-family="Avenir Next LT Pro,Avenir Next LT Pro_MSFontService,sans-serif" font-weight="400" font-size="83" transform="matrix(6.12323e-17 -1 1 6.12323e-17 1437.06 935)">2</text><text font-family="Avenir Next LT Pro,Avenir Next LT Pro_MSFontService,sans-serif" font-weight="400" font-size="83" transform="matrix(6.12323e-17 -1 1 6.12323e-17 1437.06 1152)">4</text><text font-family="Avenir Next LT Pro,Avenir Next LT Pro_MSFontService,sans-serif" font-weight="400" font-size="83" transform="matrix(6.12323e-17 -1 1 6.12323e-17 1437.06 1368)">6</text><text font-family="Avenir Next LT Pro,Avenir Next LT Pro_MSFontService,sans-serif" font-weight="400" font-size="83" transform="matrix(6.12323e-17 -1 1 6.12323e-17 1437.06 1585)">8</text><text font-family="Avenir Next LT Pro,Avenir Next LT Pro_MSFontService,sans-serif" font-weight="400" font-size="83" transform="matrix(6.12323e-17 -1 1 6.12323e-17 1437.06 1825)">10</text><text font-family="Avenir Next LT Pro,Avenir Next LT Pro_MSFontService,sans-serif" font-weight="400" font-size="83" transform="matrix(6.12323e-17 -1 1 6.12323e-17 1437.06 2042)">12</text><text font-family="Avenir Next LT Pro,Avenir Next LT Pro_MSFontService,sans-serif" font-weight="400" font-size="83" transform="matrix(6.12323e-17 -1 1 6.12323e-17 1437.06 2258)">14</text><text font-family="Avenir Next LT Pro,Avenir Next LT Pro_MSFontService,sans-serif" font-weight="400" font-size="83" transform="matrix(6.12323e-17 -1 1 6.12323e-17 1437.06 2475)">16</text><text font-family="Avenir Next LT Pro,Avenir Next LT Pro_MSFontService,sans-serif" font-weight="400" font-size="83" transform="matrix(6.12323e-17 -1 1 6.12323e-17 1437.06 2692)">18</text><text font-family="Avenir Next LT Pro,Avenir Next LT Pro_MSFontService,sans-serif" font-weight="400" font-size="83" transform="matrix(6.12323e-17 -1 1 6.12323e-17 1437.06 2908)">20</text><text font-family="Avenir Next LT Pro,Avenir Next LT Pro_MSFontService,sans-serif" font-weight="400" font-size="83" transform="matrix(6.12323e-17 -1 1 6.12323e-17 1437.06 3125)">25</text><text font-family="Avenir Next LT Pro,Avenir Next LT Pro_MSFontService,sans-serif" font-weight="400" font-size="83" transform="matrix(6.12323e-17 -1 1 6.12323e-17 1437.06 3341)">30</text><text font-family="Avenir Next LT Pro,Avenir Next LT Pro_MSFontService,sans-serif" font-weight="400" font-size="83" transform="matrix(6.12323e-17 -1 1 6.12323e-17 1437.06 3558)">35</text></g></svg>